<?xml version="1.0" encoding="UTF-8"?>
<svg id="Layer_1" xmlns="http://www.w3.org/2000/svg" version="1.1" viewBox="0 0 964.35 1080">
  <!-- Generator: Adobe Illustrator 29.6.1, SVG Export Plug-In . SVG Version: 2.1.1 Build 9)  -->
  <defs>
    <style>
      .st0 {
        fill: #d91011;
      }
    </style>
  </defs>
  <path class="st0" d="M594.49,903.79h-228.27c-11.87,13.85-19.27,29.88-26.63,46.08-11.98,26.37-24.48,52.51-37.04,78.61-22.58,46.93-92.55,66.66-141.78,37.26-51.77-30.92-62.49-101.56-34.65-143.17,16.71-24.96,35.58-48.51,54.05-72.25,37.65-48.36,75.68-96.42,113.57-144.59,20.65-26.26,41.66-52.24,61.86-78.84,9.22-12.15,20.39-23.37,25.76-41.41-7.42.78-12.75.84-17.85,1.94-71.85,15.58-143.67,31.34-215.51,46.95-10.89,2.37-21.82,4.98-32.87,6.08-41.21,4.08-74.44-10.21-97.88-44.9-21.18-31.34-21.71-64.89-7.9-98.88,11.5-28.31,51.09-63.38,96.47-60.16,19.97,1.42,39.82,4.76,59.67,7.65,66.15,9.65,132.27,19.54,198.44,29.14,3.89.56,8.02-.59,14.77-1.18-6-16.1-16.08-26.52-24.76-37.56-50.95-64.85-102.22-129.45-153.28-194.21-17.93-22.74-35.35-45.89-53.44-68.5-26.39-32.97-30.18-70.02-13.69-106.91C149.95,28.25,180.6,5.83,221.41.97c51.94-6.19,90.43,17.48,111.64,66.07,45.48,104.18,91.23,208.23,137.04,312.26,3.47,7.87,8.37,15.1,12.23,21.96,12.77-.89,12.84-10.49,15.35-17.01,18.38-47.86,36.05-95.99,54.36-143.87,5.96-15.59,12.23-31.21,20.01-45.94,25.26-47.81,87.64-63.42,136.08-38.72,66.49,33.91,75.74,119,23.52,168.74-45.18,43.04-88.7,87.84-132.79,132.02-5.13,5.14-9.27,11.28-16.71,20.45,12.45-1.28,20.14-1.48,27.58-2.93,68.85-13.48,137.65-27.24,206.49-40.77,10.92-2.15,21.98-3.58,32.98-5.31,73.62-11.54,137.51,59.72,107.62,139.6-13.97,37.34-42.32,59.67-82.74,63.4-14.24,1.31-29.06.14-43.23-2.23-70.31-11.77-140.47-24.39-210.72-36.51-10.65-1.84-21.5-5.24-32.2-.68-2.31,11.33,6.02,17.05,11.23,23.59,58.33,73.23,116.98,146.19,175.58,219.2,16.04,19.98,32.84,39.4,48.06,59.99,9.2,12.44,18.2,25.81,23.57,40.15,18.31,48.88-1.16,100.05-46.49,126.29-17.4,10.07-34.7,19.33-56.07,19.27-41.55-.11-73.93-16.3-93.5-53.06-13.57-25.49-23.87-52.72-35.72-79.13-6.33-14.11-12.84-28.13-20.11-44.02ZM482.56,651.15c-2.42,1.41-5.27,2.05-6.02,3.66-23.27,50.31-46.39,100.7-69.27,151.19-1.2,2.65-.15,6.32-.15,10.03,3.26.81,6.3,2.24,9.35,2.24,44.36-.06,88.73-.31,133.09-.58,1.03,0,2.27-.54,3.03-1.25.7-.64.89-1.85,2.17-4.79-17.94-51.94-43.44-102.41-65.3-154.37-1.1-2.61-4.64-4.2-6.89-6.13Z"/>
</svg>